<?xml version="1.0" encoding="iso-8859-1"?>
<!-- Generator: Adobe Illustrator 21.0.0, SVG Export Plug-In . SVG Version: 6.00 Build 0)  -->
<svg version="1.1" id="Layer_1" xmlns="http://www.w3.org/2000/svg" xmlns:xlink="http://www.w3.org/1999/xlink" x="0px" y="0px"
	 viewBox="0 0 200 200" style="enable-background:new 0 0 200 200;" xml:space="preserve">
<style type="text/css">
	.st0{fill:none;stroke:#11A7ED;stroke-width:2.8542;stroke-miterlimit:10;}
	.st1{fill:none;stroke:#FF82BC;stroke-width:2.8542;stroke-miterlimit:10;}
	.st2{fill:none;stroke:#D5E5F0;stroke-width:2.8542;stroke-miterlimit:10;}
	.st3{fill:none;stroke:#11A7ED;stroke-width:2.1377;stroke-miterlimit:10;}
	.st4{fill:none;stroke:#11A7ED;stroke-width:2.1377;stroke-linecap:round;stroke-linejoin:round;stroke-miterlimit:10;}
	.st5{fill:none;stroke:#B7DAEB;stroke-width:2.152;stroke-miterlimit:10;}
	.st6{fill:none;stroke:#B7DAEB;stroke-width:2.152;stroke-miterlimit:10;stroke-dasharray:4.31,4.31;}
	.st7{fill:none;stroke:#11A7ED;stroke-width:2.152;stroke-miterlimit:10;}
	.st8{fill:none;stroke:#B7DAEB;stroke-width:2.152;stroke-miterlimit:10;stroke-dasharray:10.369,2.5922,10.369,10.369;}
	
		.st9{fill:none;stroke:#B7DAEB;stroke-width:2.152;stroke-miterlimit:10;stroke-dasharray:2.5922,10.369,10.369,2.5922,10.369,10.369;}
	.st10{fill:none;stroke:#B7DAEB;stroke-width:2.152;stroke-miterlimit:10;stroke-dasharray:12.3537,3.0884,12.3537,12.3537;}
	
		.st11{fill:none;stroke:#B7DAEB;stroke-width:2.152;stroke-miterlimit:10;stroke-dasharray:3.0884,12.3537,12.3537,3.0884,12.3537,12.3537;}
	.st12{fill:none;stroke:#B7DAEB;stroke-width:2.152;stroke-miterlimit:10;stroke-dasharray:12.3103,3.0776,12.3103,12.3103;}
	
		.st13{fill:none;stroke:#B7DAEB;stroke-width:2.152;stroke-miterlimit:10;stroke-dasharray:3.0776,12.3103,12.3103,3.0776,12.3103,12.3103;}
	.st14{fill:none;stroke:#B7DAEB;stroke-width:2.152;stroke-miterlimit:10;stroke-dasharray:12.2853,3.0713,12.2853,12.2853;}
	
		.st15{fill:none;stroke:#B7DAEB;stroke-width:2.152;stroke-miterlimit:10;stroke-dasharray:3.0713,12.2853,12.2853,3.0713,12.2853,12.2853;}
	.st16{fill:none;stroke:#B7DAEB;stroke-width:2.152;stroke-miterlimit:10;stroke-dasharray:1.4769,0.3692,1.4769,1.4769;}
</style>
<g id="plan-opensource_x60_89x99">
	<polyline class="st0" points="36.778,51.953 44.799,57.773 49.126,54.634 52.576,52.13 63.988,60.216 63.988,76.139 58.784,80.068 
			"/>
	<polyline class="st0" points="25.61,73.336 25.61,60.299 32.97,54.798 	"/>
	<polyline class="st0" points="36.778,84.572 32.892,81.638 25.61,76.139 	"/>
	<polyline class="st0" points="53.434,84.108 44.799,90.628 39.779,86.838 	"/>
	<polygon class="st0" points="20.406,78.731 20.406,57.691 36.732,45.491 44.799,51.344 52.54,45.728 69.191,57.525 69.191,78.731 
		44.799,97.149 	"/>
	<polygon class="st1" points="44.799,64.202 52.612,58.533 58.784,62.906 58.784,73.548 44.799,84.108 30.814,73.548 30.814,62.906 
		36.823,58.415 	"/>
	<polyline class="st1" points="44.718,84.108 44.718,73.336 31.445,63.632 	"/>
	<polyline class="st1" points="51.324,79.322 51.324,68.551 36.764,58.317 	"/>
	<line class="st1" x1="44.718" y1="73.336" x2="58.784" y2="62.906"/>
	<line class="st0" x1="81.101" y1="19.906" x2="81.101" y2="28.259"/>
	<line class="st0" x1="8.853" y1="19.906" x2="8.853" y2="28.259"/>
	<polygon class="st0" points="76.397,32.857 76.148,12.056 13.308,12.056 13.557,32.857 	"/>
	<line class="st0" x1="39.788" y1="25.817" x2="49.893" y2="25.817"/>
	<polyline class="st0" points="43.561,17.284 43.561,21.202 46.894,21.202 	"/>
	<line class="st0" x1="84.021" y1="24.082" x2="88.754" y2="24.082"/>
	<line class="st0" x1="4.734" y1="24.082" x2="0" y2="24.082"/>
	<line class="st0" x1="49.017" y1="6.946" x2="40.663" y2="6.946"/>
	<line class="st0" x1="44.799" y1="4.312" x2="44.799" y2="0"/>
	<path class="st0" d="M27.929,39.137h42.068c9.673,0,17.514,7.841,17.514,17.514v24.163"/>
	<path class="st0" d="M80.05,80.141V58.289c0-6.447-5.245-11.692-11.692-11.692"/>
	<path class="st0" d="M27.929,39.137h-8.327c-9.673,0-17.514,7.841-17.514,17.514v24.163"/>
	<path class="st0" d="M9.548,79.322V57.47c0-6.447,5.245-11.692,11.692-11.692"/>
	<circle class="st0" cx="82.34" cy="86.581" r="4.048"/>
	<circle class="st0" cx="8.064" cy="86.267" r="4.048"/>
	<line class="st0" x1="65.665" y1="17.284" x2="65.665" y2="24.082"/>
	<line class="st0" x1="69.064" y1="20.683" x2="62.266" y2="20.683"/>
	<line class="st0" x1="24.53" y1="17.284" x2="24.53" y2="24.082"/>
	<line class="st0" x1="27.929" y1="20.683" x2="21.131" y2="20.683"/>
</g>
<g id="plan-pre-production_x60_90x87">
	<path class="st0" d="M77.331,47.891c-1.665,3.467-5.315,3.985-7.342,3.985H58.471c-3.764,0-7.545,1.277-10.301,3.992
		c-1.652,1.628-2.935,3.772-3.626,6.465c-0.363,1.421-0.562,2.996-0.562,4.729v1.228"/>
	<path class="st0" d="M81.751,57.03c-3.063,2.632-7.16,4.104-11.762,4.104H58.471c-2.554,0-3.861,1.065-4.53,2.324"/>
	<path class="st0" d="M85.677,51.9c0.085-0.178,0.185-0.396,0.289-0.647c1.144-2.752,3.035-9.712-2.817-17.025l-1.914-2.781"/>
	<path class="st0" d="M58.471,56.505h4.024h7.494c5.3,0,9.497-2.41,11.515-6.609c0.846-1.76,2.305-6.157-0.874-11.233
		c0,0-1.86-2.835-3.002-4.404c-2.837-3.904-3.412-8.562,1.445-10.572"/>
	<path class="st0" d="M48.612,67.062c0-3.355,0.945-5.779,2.403-7.451"/>
	<path class="st0" d="M41.855,57.645c-1.456-2.07-3.401-3.56-5.575-4.507"/>
	<path class="st0" d="M2.856,38.367c-1.296,3.201-1.646,6.8-1.308,9.348c0.259,1.956,0.928,3.418,1.296,4.185
		c2.777,5.781,8.642,9.234,15.687,9.234h11.518c2.466,0,3.77,0.994,4.458,2.195"/>
	<path class="st0" d="M13.674,55.736c-2.98-1.021-5.307-3.03-6.657-5.84c-0.931-1.936-2.602-7.061,1.97-12.774
		c1.119-1.438,1.62-4.739-0.458-7.581"/>
	<path class="st0" d="M39.909,67.062c0-7.783-5.093-10.557-9.859-10.557h-8.681h-2.836"/>
	<path class="st0" d="M47.688,50.347c-1.477,0.952-2.835,2.134-4.006,3.545"/>
	<polyline class="st0" points="52.969,68.903 49.813,72.057 44.182,72.057 38.552,72.057 35.396,68.903 	"/>
	<line class="st1" x1="33.047" y1="27.5" x2="27.167" y2="38.662"/>
	<line class="st1" x1="40.053" y1="24.729" x2="32.712" y2="38.662"/>
	<line class="st1" x1="44.306" y1="27.18" x2="38.258" y2="38.662"/>
	<line class="st1" x1="51.143" y1="24.729" x2="43.803" y2="38.662"/>
	<line class="st1" x1="55.241" y1="27.475" x2="49.348" y2="38.662"/>
	<line class="st1" x1="58.403" y1="31.999" x2="54.893" y2="38.662"/>
	<line class="st1" x1="61.865" y1="35.952" x2="60.438" y2="38.662"/>
	<path class="st0" d="M13.536,31.609c3.105,3.286,0.362,7.288-1.536,9.475c-0.565,0.652-1.011,1.499-1.231,2.444
		c-0.447,1.921-0.019,3.447,0.421,4.363c1.665,3.467,5.314,3.985,7.342,3.985h11.518"/>
	<path class="st1" d="M44.602,13.462"/>
	<path class="st0" d="M48.352,1.427c3.135,0,5.806,0,6.812,0c2.813,0,3.125,4.375,0,4.375s-1.563,0-3.125,0
		c-1.563,0-0.83,2.466,0.313,4.202c1.03,1.567,12.998,24.896,16.513,30.314c2.027,3.125,0.253,4.688-2.028,4.688
		c-3.294,0-41.303,0-44.596,0c-2.281,0-4.055-1.563-2.028-4.688c3.515-5.418,15.37-28.827,16.513-30.314
		c1.904-2.476,1.875-4.202,0.313-4.202c-1.563,0,0,0-3.125,0s-2.813-4.375,0-4.375c0.956,0,3.705,0,6.939,0H48.352z"/>
	<line class="st0" x1="55.187" y1="76.881" x2="33.34" y2="76.881"/>
	<line class="st0" x1="39.909" y1="86.826" x2="39.909" y2="81.848"/>
	<line class="st0" x1="48.612" y1="81.848" x2="48.612" y2="86.826"/>
</g>
<g id="full-production_x60_125x191">
	<path class="st0" d="M81.793,85.722l7.064,7.064V79.659c0-3.831-3.105-6.936-6.936-6.936c0-15.834-9.772-29.982-25.102-39.331
		c-15.331,9.349-25.102,23.497-25.102,39.331c-3.831,0-6.936,3.105-6.936,6.936v13.127l7.064-7.064"/>
	<path class="st0" d="M81.921,72.723c0-11.754-13.359-16.818-25.102-25.138c-11.743,8.32-25.102,13.384-25.102,25.138"/>
	<path class="st0" d="M81.921,70.246c0-15.834-9.772-41.302-25.102-50.65c-15.331,9.349-25.102,34.816-25.102,50.65"/>
	<line class="st2" x1="98.157" y1="113.365" x2="98.157" y2="166.254"/>
	<path class="st2" d="M91.05,66.239c4.287,2.925,7.106,7.85,7.106,13.42v25.882"/>
	<path class="st2" d="M15.481,138.377V79.659c0-5.57,2.819-10.495,7.106-13.42"/>
	<line class="st2" x1="15.481" y1="166.254" x2="15.481" y2="144.5"/>
	<line class="st0" x1="37.094" y1="90.614" x2="76.543" y2="90.614"/>
	<path class="st0" d="M74.361,102.379"/>
	<line class="st1" x1="39.472" y1="105.541" x2="39.472" y2="95.322"/>
	<path class="st1" d="M44.524,124.389c-2.79,0-5.052-2.262-5.052-5.052v-11.023"/>
	<path class="st1" d="M49.924,109.286c2.79,0,5.052,2.262,5.052,5.052v19.44"/>
	<path class="st1" d="M67.716,150.623c-2.79,0-5.052-2.262-5.052-5.052v-7.194"/>
	<path class="st1" d="M52.998,140.546c2.79,0,5.052,2.262,5.052,5.052v19.44"/>
	<path class="st1" d="M53.812,148.308c-2.474,0-4.48-2.006-4.48-4.48v-19.44c0-2.79-2.262-5.052-5.052-5.052"/>
	<path class="st1" d="M61.782,133.587c2.474,0,4.48-2.006,4.48-4.48v-19.44c0-2.79-2.262-5.052-5.052-5.052"/>
	<path class="st1" d="M77.813,119.517c-2.474,0-4.48-2.006-4.48-4.48v-19.44"/>
	<line class="st1" x1="45.116" y1="97.696" x2="45.116" y2="95.322"/>
	<path class="st1" d="M49.596,114.962c-2.474,0-4.48-2.006-4.48-4.48v-10.329"/>
	<line class="st1" x1="50.759" y1="105.541" x2="50.759" y2="95.322"/>
	<path class="st1" d="M63.143,127.616c-1.509-0.874-2.524-2.506-2.524-4.375v-9.875"/>
	<path class="st1" d="M61.455,109.492c-2.79,0-5.052-2.262-5.052-5.052v-9.118"/>
	<line class="st1" x1="62.046" y1="100.432" x2="62.046" y2="95.322"/>
	<line class="st1" x1="67.689" y1="103.07" x2="67.689" y2="95.322"/>
	<line class="st1" x1="70.843" y1="129.963" x2="70.843" y2="122.214"/>
	<line class="st1" x1="58.929" y1="133.059" x2="58.929" y2="137.087"/>
	<line class="st0" x1="36.538" y1="76.738" x2="49.849" y2="76.738"/>
	<line class="st0" x1="51.853" y1="76.738" x2="61.123" y2="76.738"/>
	<line class="st0" x1="43.149" y1="67.702" x2="70.939" y2="67.702"/>
	<line class="st0" x1="63.128" y1="76.738" x2="76.438" y2="76.738"/>
	<line class="st2" x1="23.757" y1="100.432" x2="23.757" y2="183.519"/>
	<line class="st2" x1="32.118" y1="94.28" x2="32.118" y2="146.538"/>
	<line class="st2" x1="32.118" y1="156.533" x2="32.118" y2="178.862"/>
	<line class="st2" x1="89.692" y1="102.407" x2="89.692" y2="133.689"/>
	<line class="st2" x1="89.692" y1="140.486" x2="89.692" y2="190.859"/>
	<line class="st2" x1="81.331" y1="94.28" x2="81.331" y2="146.538"/>
	<line class="st2" x1="116.316" y1="20.368" x2="116.316" y2="37.379"/>
	<line class="st2" x1="124.822" y1="28.874" x2="107.811" y2="28.874"/>
	<line class="st2" x1="4.853" y1="0" x2="4.853" y2="9.705"/>
	<line class="st2" x1="9.705" y1="4.853" x2="0" y2="4.853"/>
	<line class="st2" x1="17.847" y1="23.153" x2="17.847" y2="32.859"/>
	<line class="st2" x1="22.7" y1="28.006" x2="12.994" y2="28.006"/>
	<line class="st0" x1="43.149" y1="83.133" x2="70.939" y2="83.133"/>
</g>
<g id="plan-core_x60_71x63">
	<polyline class="st3" points="41.172,45.128 35.339,39.292 29.498,45.128 	"/>
	
		<ellipse transform="matrix(0.847 -0.5315 0.5315 0.847 -13.1438 36.6661)" class="st3" cx="57.134" cy="41.17" rx="2.949" ry="2.951"/>
	
		<ellipse transform="matrix(0.5315 -0.847 0.847 0.5315 -8.1069 67.6816)" class="st3" cx="57.135" cy="41.17" rx="2.951" ry="2.949"/>
	
		<ellipse transform="matrix(0.8469 -0.5317 0.5317 0.8469 -19.757 13.7143)" class="st3" cx="13.94" cy="41.17" rx="2.948" ry="2.951"/>
	<rect x="5.63" y="32.864" class="st3" width="59.81" height="29.051"/>
	<line class="st3" x1="13.852" y1="55.849" x2="57.193" y2="55.849"/>
	<line class="st3" x1="13.852" y1="51.514" x2="57.193" y2="51.514"/>
	<line class="st3" x1="69.776" y1="50.07" x2="69.776" y2="37.96"/>
	<line class="st3" x1="65.441" y1="50.07" x2="65.441" y2="37.96"/>
	<line class="st3" x1="5.401" y1="50.07" x2="5.401" y2="37.96"/>
	<line class="st3" x1="1.069" y1="50.07" x2="1.069" y2="37.96"/>
	<path class="st4" d="M14.976,32.33c-2.4,0.184-3.009-5.421,1.536-5.041c0.239-3.047,2.498-5.43,7.014-4.166
		c0,0,1.675-7.313,8.031-3.148c0.628-1.631,6.776-6.399,9.913,0.753c3.264-0.753,8.534-1.129,9.035,4.267
		c3.512-3.513,6.671-0.675,6.42,3.466c4.767-2.51,2.741,4.377,2.741,4.377"/>
	<line class="st3" x1="35.647" y1="8.893" x2="35.647" y2="0"/>
	<line class="st3" x1="51.133" y1="12.124" x2="54.688" y2="3.97"/>
	<line class="st3" x1="20.16" y1="12.124" x2="16.603" y2="3.97"/>
	<path class="st3" d="M31.76,19.446c0,0,3.841-0.123,6.571,4.959c2.727,5.083,5.33,2.231,6.819,1.488"/>
	<path class="st3" d="M44.157,20.438c0,0-1.241,6.693,2.231,7.932c3.471,1.241,3.843,1.862,3.843,4.341"/>
	<path class="st3" d="M22.315,23.128c-2.212,0.443-2.841,8.144,2.839,9.596"/>
	<path class="st3" d="M48.229,29.026c4.531,2.361,5.399-5.416,8.796-2.301"/>
	<path class="st3" d="M23.486,32.156c0,0,0.146-6.118,5.38-6.413c5.232-0.295,1.842,6.559,7.002,6.559
		c5.158,0,4.493-5.821,4.493-5.821"/>
	<path class="st3" d="M29.959,25.896c0,0-1.668-7.967,6.504-3.883"/>
</g>
<g id="plan-flex_x60_62x55">
	<rect x="1.069" y="29.448" class="st3" width="59.813" height="24.222"/>
	<line class="st3" x1="4.357" y1="44.231" x2="10.383" y2="50.26"/>
	<line class="st3" x1="4.357" y1="38.365" x2="16.09" y2="50.099"/>
	<line class="st3" x1="23.493" y1="19.444" x2="17.39" y2="25.549"/>
	<line class="st3" x1="29.081" y1="19.444" x2="22.978" y2="25.549"/>
	<line class="st3" x1="34.671" y1="19.444" x2="28.568" y2="25.549"/>
	<line class="st3" x1="40.258" y1="19.444" x2="34.153" y2="25.549"/>
	<line class="st3" x1="45.846" y1="19.444" x2="39.741" y2="25.549"/>
	<line class="st3" x1="51.434" y1="19.444" x2="45.331" y2="25.549"/>
	<line class="st3" x1="57.021" y1="19.444" x2="50.918" y2="25.549"/>
	<polyline class="st3" points="60.476,19.951 60.476,24.996 56.818,24.996 	"/>
	<line class="st3" x1="4.357" y1="32.498" x2="21.756" y2="49.9"/>
	<line class="st3" x1="30.386" y1="17.153" x2="32.306" y2="0.12"/>
	<line class="st3" x1="37.567" y1="17.153" x2="35.647" y2="0.12"/>
	<line class="st3" x1="45.825" y1="17.153" x2="47.745" y2="0.12"/>
	<line class="st3" x1="53.006" y1="17.153" x2="51.085" y2="0.12"/>
	<rect x="29.012" y="36.656" class="st3" width="1.904" height="1.904"/>
	<rect x="36.89" y="36.656" class="st3" width="1.906" height="1.904"/>
	<rect x="44.768" y="36.656" class="st3" width="1.906" height="1.904"/>
	<rect x="52.648" y="36.656" class="st3" width="1.904" height="1.904"/>
	<rect x="29.012" y="44.543" class="st3" width="1.904" height="1.904"/>
	<rect x="36.89" y="44.543" class="st3" width="1.906" height="1.904"/>
	<rect x="44.768" y="44.543" class="st3" width="1.906" height="1.904"/>
	<rect x="52.648" y="44.543" class="st3" width="1.904" height="1.904"/>
	<line class="st3" x1="21.523" y1="44.074" x2="21.523" y2="31.598"/>
	<line class="st3" x1="17.414" y1="40.154" x2="17.414" y2="31.598"/>
	<line class="st3" x1="13.017" y1="35.709" x2="13.017" y2="31.598"/>
</g>
<g id="plan-custom_x60_77x56">
	<polyline class="st3" points="48.91,23.622 54.346,28.92 42.814,40.158 38.023,44.829 33.014,39.947 26.17,33.278 21.699,28.92 
		27.132,23.626 	"/>
	<polygon class="st3" points="38.023,19.92 31.389,13.454 38.023,6.985 44.658,13.454 	"/>
	<line class="st3" x1="51.41" y1="32.452" x2="25.62" y2="32.452"/>
	<polyline class="st3" points="23.204,30.945 12.384,35.8 6.629,54.714 13.134,54.714 21.699,42.829 34.456,41.351 	"/>
	<polyline class="st3" points="52.843,30.945 63.661,35.8 69.42,54.714 62.913,54.714 54.346,42.829 41.584,41.36 	"/>
	<line class="st3" x1="38.023" y1="0" x2="38.023" y2="3.626"/>
	<polyline class="st3" points="43.872,14.22 58.156,10.377 74.132,18.368 71.269,20.827 54.764,17.923 43.557,28.845 40.261,25.631 
			"/>
	<polyline class="st3" points="32.175,14.221 17.889,10.377 1.915,18.368 4.776,20.827 21.281,17.923 32.487,28.845 35.785,25.631 	
		"/>
	<line class="st3" x1="35.644" y1="9.85" x2="40.593" y2="9.85"/>
	<line class="st3" x1="34.559" y1="10.87" x2="41.68" y2="10.87"/>
	<path class="st3" d="M11.257,47.967"/>
	<line class="st3" x1="11.257" y1="47.967" x2="13.766" y2="47.967"/>
	<line class="st3" x1="12.879" y1="43.817" x2="16.935" y2="43.817"/>
	<line class="st3" x1="14.499" y1="39.667" x2="18.85" y2="39.667"/>
	<line class="st3" x1="64.79" y1="47.967" x2="62.278" y2="47.967"/>
	<line class="st3" x1="63.168" y1="43.817" x2="59.112" y2="43.817"/>
	<line class="st3" x1="61.545" y1="39.667" x2="57.197" y2="39.667"/>
	<line class="st3" x1="33.014" y1="11.567" x2="43.228" y2="11.567"/>
	<line class="st3" x1="36.778" y1="32.467" x2="36.136" y2="38.915"/>
	<line class="st3" x1="39.954" y1="32.467" x2="40.596" y2="38.915"/>
</g>
<g id="plan-tinker_x60_48x78">
	<circle class="st3" cx="20.445" cy="23.949" r="5.237"/>
	<circle class="st3" cx="30.91" cy="5.047" r="3.978"/>
	<path class="st3" d="M3.707,76.205c-2.064,0-3.67-1.414-1.835-4.243c3.181-4.904,13.912-26.091,14.947-27.437
		c1.724-2.242,1.697-3.804,0.283-3.804c-1.414,0,0,0-2.828,0c-2.829,0-2.546-3.96,0-3.96c2.352,0,16.689,0,19.235,0
		c2.546,0,2.828,3.96,0,3.96c-2.829,0-1.414,0-2.829,0c-1.414,0-0.751,2.232,0.283,3.804c0.932,1.418,11.765,22.533,14.946,27.437
		c1.835,2.829,0.229,4.243-1.835,4.243C41.092,76.205,6.689,76.205,3.707,76.205z"/>
	<line class="st3" x1="13.489" y1="60.359" x2="8.167" y2="70.463"/>
	<line class="st3" x1="19.83" y1="57.85" x2="13.186" y2="70.463"/>
	<line class="st3" x1="23.68" y1="60.07" x2="18.206" y2="70.463"/>
	<line class="st3" x1="29.868" y1="57.85" x2="23.225" y2="70.463"/>
	<line class="st3" x1="33.577" y1="60.338" x2="28.243" y2="70.463"/>
	<line class="st3" x1="36.44" y1="64.432" x2="33.262" y2="70.463"/>
	<line class="st3" x1="39.574" y1="68.011" x2="38.282" y2="70.463"/>
</g>
<g id="pre-prod-set_x60_522x205">
	<g>
		<g>
			<path class="st5" d="M37.203,141.913c0-0.458,0-1.208,0-2.149"/>
			<path class="st6" d="M37.203,135.449c0-4.359,0-9.441,0-11.022c0-5.109-9.551-7.118-9.551-17.493
				c0-8.616,6.597-14.599,15.809-14.599c7.484,0,10.851,5.206,10.851,10.413c0,5.208-4.222,9.43-9.43,9.43
				c-5.244,0-9.75-3.943-9.75-10.807c0-15.748,16.965-26.987,29.409-26.987c7.881,0,13.698,5.17,13.698,10.685
				c0,5.914-3.675,10.708-10.707,10.708c-5.913,0-10.707-4.794-10.707-10.708c0-16.831,14.488-31.518,33.867-31.518
				c7.744,0,15.697,4.916,15.697,13.473c0,7.096-5.754,12.849-12.85,12.849c-10.243,0-15.787-9.546-15.787-19.904
				c0-15.18,15.408-27.701,33.79-27.701c26.363,0,24.707,27.151,47.769,27.151c9.183,0,16.627-7.444,16.627-16.627
				c0-9.183-7.444-16.627-16.627-16.627c-9.182,0-16.626,7.444-16.626,16.627v99.313c0,4.279,3.469,7.749,7.748,7.749
				c4.279,0,7.749-3.47,7.749-7.749V82.62c0-4.279,3.469-7.748,7.748-7.748c4.279,0,7.749,3.469,7.749,7.748v59.486
				c0,4.279,3.469,7.749,7.748,7.749c4.279,0,7.749-3.47,7.749-7.749V71.851c0-4.279,3.469-7.748,7.748-7.748
				c4.279,0,7.749,3.469,7.749,7.748v70.255c0,4.279,3.469,7.749,7.748,7.749c4.279,0,7.749-3.47,7.749-7.749V61.082
				c0-4.279,3.469-7.748,7.748-7.748c4.279,0,7.749,3.469,7.749,7.748v81.023c0,4.279,3.47,7.749,7.749,7.749
				c4.278,0,7.748-3.47,7.748-7.749V30.65c0-14.551,11.795-26.346,26.346-26.346c14.551,0,26.346,11.795,26.346,26.346v10.246"/>
			<line class="st5" x1="303.853" y1="43.049" x2="303.853" y2="45.201"/>
		</g>
	</g>
	<path class="st7" d="M33.975,132.433v-8.006c0-0.743-1.299-2.007-2.556-3.229c-2.952-2.871-6.996-6.804-6.996-14.264
		c0-7.029,3.707-12.747,9.552-15.683c4.017-9.422,13.253-16.043,22.128-18.743c3.515-8.462,10.471-15.325,19.251-19.074
		c3.6-13.926,18.458-24.393,36.186-24.393c14.914,0,21.86,7.962,27.915,15.105v-1.353c0-10.948,8.907-19.855,19.854-19.855
		c10.948,0,19.855,8.907,19.855,19.855s-8.907,19.855-19.855,19.855c-5.515,0-9.827-1.42-13.398-3.566v83.024
		c0,2.493,2.028,4.521,4.52,4.521c2.493,0,4.52-2.028,4.52-4.521V82.62c0-6.052,4.924-10.976,10.976-10.976
		c6.053,0,10.977,4.924,10.977,10.976v59.486c0,2.493,2.028,4.521,4.52,4.521s4.52-2.028,4.52-4.521V71.851
		c0-6.052,4.924-10.976,10.976-10.976c6.053,0,10.977,4.924,10.977,10.976v70.255c0,2.493,2.028,4.521,4.52,4.521
		s4.521-2.028,4.521-4.521V61.082c0-6.052,4.924-10.976,10.976-10.976c6.053,0,10.977,4.924,10.977,10.976v81.023
		c0,2.493,2.028,4.521,4.521,4.521s4.52-2.028,4.52-4.521V30.65c0-16.307,13.266-29.574,29.574-29.574
		c16.307,0,29.574,13.267,29.574,29.574V45.2 M300.625,45.2V30.65c0-12.747-10.37-23.118-23.118-23.118
		c-12.747,0-23.118,10.37-23.118,23.118v111.456c0,6.053-4.924,10.977-10.976,10.977c-6.053,0-10.977-4.924-10.977-10.977V61.082
		c0-2.492-2.028-4.52-4.521-4.52c-2.493,0-4.52,2.028-4.52,4.52v81.023c0,6.053-4.924,10.977-10.977,10.977
		c-6.052,0-10.976-4.924-10.976-10.977V71.851c0-2.492-2.028-4.52-4.521-4.52s-4.52,2.028-4.52,4.52v70.255
		c0,6.053-4.924,10.977-10.977,10.977c-6.052,0-10.976-4.924-10.976-10.977V82.62c0-2.492-2.028-4.52-4.521-4.52
		s-4.52,2.028-4.52,4.52v59.486c0,6.053-4.924,10.977-10.977,10.977c-6.052,0-10.976-4.924-10.976-10.977V53.858
		c-1.68-1.708-3.205-3.508-4.679-5.247c-5.713-6.745-11.11-13.115-23.236-13.115c-12.656,0-23.812,6.542-28.373,15.545
		c2.43-0.471,4.947-0.718,7.523-0.718c9.303,0,18.926,6.247,18.926,16.702c0,8.865-7.213,16.077-16.078,16.077
		c-12.097,0-18.606-10.928-18.996-22.066c-4.359,2.506-7.989,5.993-10.526,10.126c0.175-0.004,0.35-0.006,0.524-0.006
		c9.333,0,16.926,6.241,16.926,13.913c0,8.205-5.731,13.936-13.935,13.936c-7.684,0-13.935-6.252-13.935-13.936
		c0-1.654,0.124-3.282,0.364-4.874c-4.277,1.979-8.394,5.029-11.325,8.926c0.273-0.009,0.548-0.014,0.825-0.014
		c9.673,0,14.079,7.071,14.079,13.642c0,6.98-5.679,12.658-12.658,12.658c-6.301,0-12.677-4.6-12.967-13.404
		c-0.673,1.454-1.034,3.113-1.034,4.931c0,4.733,2.448,7.114,5.041,9.636c2.114,2.056,4.511,4.387,4.511,7.857v8.002
		 M65.194,171.683c-1.407,2.929-4.489,3.366-6.202,3.366h-9.729c-3.179,0-6.373,1.079-8.702,3.372
		c-1.395,1.376-2.48,3.186-3.063,5.461c-0.307,1.2-0.475,2.531-0.475,3.995v1.037 M68.928,179.402
		c-2.588,2.223-6.049,3.467-9.936,3.467h-9.729c-2.158,0-3.262,0.899-3.826,1.963 M72.245,175.069
		c0.072-0.151,0.156-0.334,0.244-0.547c0.967-2.324,2.564-8.204-2.379-14.381l-1.617-2.349 M49.263,178.959h3.399h6.331
		c4.477,0,8.023-2.036,9.727-5.583c0.715-1.487,1.947-5.201-0.738-9.489c0,0-1.571-2.394-2.536-3.721
		c-2.397-3.298-2.882-7.233,1.22-8.93 M40.935,187.877c0-2.834,0.799-4.882,2.03-6.294 M35.227,179.922
		c-1.23-1.749-2.873-3.007-4.709-3.807 M2.283,163.637c-1.095,2.704-1.39,5.744-1.105,7.897c0.219,1.652,0.784,2.887,1.095,3.535
		c2.346,4.884,7.3,7.8,13.252,7.8h9.729c2.083,0,3.184,0.839,3.766,1.854 M11.421,178.309c-2.518-0.862-4.483-2.559-5.623-4.933
		c-0.786-1.635-2.198-5.964,1.664-10.791c0.946-1.215,1.368-4.003-0.387-6.404 M33.583,187.877c0-6.575-4.302-8.918-8.329-8.918
		h-7.334h-2.396 M40.155,173.758c-1.248,0.804-2.394,1.803-3.384,2.995 M44.615,189.432l-2.666,2.665h-4.756h-4.756l-2.666-2.665
		 M11.304,157.929c2.623,2.776,0.306,6.156-1.298,8.004c-0.477,0.551-0.854,1.266-1.039,2.064c-0.377,1.623-0.016,2.912,0.356,3.686
		c1.407,2.929,4.489,3.366,6.202,3.366h9.729 M37.547,142.599 M40.431,132.433c2.648,0,5.189,0,6.038,0c2.376,0,2.64,3.696,0,3.696
		s-1.32,0-2.64,0s-0.701,2.083,0.264,3.549c0.87,1.324,10.98,21.03,13.949,25.607c1.712,2.64,0.214,3.96-1.713,3.96
		c-2.782,0-34.89,0-37.672,0c-1.927,0-3.425-1.32-1.713-3.96c2.969-4.576,12.983-24.351,13.949-25.607
		c1.609-2.091,1.584-3.549,0.264-3.549s0,0-2.64,0s-2.376-3.696,0-3.696c0.808,0,2.725,0,5.457,0 M46.489,196.171H28.034
		 M33.583,204.572v-4.205 M40.935,200.367v4.205 M39.088,96.141c-0.471,1.659-0.728,3.406-0.728,5.231
		c0,5.235,3.275,7.578,6.522,7.578c3.42,0,6.202-2.782,6.202-6.202c0-3.473-2.002-7.185-7.623-7.185
		C41.887,95.563,40.422,95.763,39.088,96.141z M61.04,77.933c-0.645,2.281-0.988,4.672-0.988,7.137c0,4.124,3.355,7.48,7.479,7.48
		c6.939,0,7.479-5.725,7.479-7.48c0-3.527-4.3-7.457-10.47-7.457C63.426,77.614,62.251,77.722,61.04,77.933z M81.062,58.211
		c-0.055,0.582-0.082,1.169-0.082,1.76c0,8.032,3.93,16.676,12.559,16.676c5.306,0,9.622-4.316,9.622-9.621
		c0-6.655-6.425-10.245-12.469-10.245C87.329,56.78,84.092,57.283,81.062,58.211z M145.912,51.107
		c3.459,3.038,7.482,5.085,13.398,5.085c7.388,0,13.399-6.011,13.399-13.399s-6.011-13.399-13.399-13.399
		c-7.388,0-13.398,6.011-13.398,13.399V51.107z"/>
	<g>
		<g>
			<line class="st5" x1="353.347" y1="95.841" x2="353.347" y2="97.455"/>
			<path class="st8" d="M353.347,107.824v7.101c0,7.575-4.741,14.042-11.418,16.596"/>
			<path class="st9" d="M336.88,132.641c-0.428,0.031-0.86,0.047-1.296,0.047c-9.81,0-17.763-7.952-17.763-17.763V102.64"/>
			<line class="st5" x1="317.821" y1="97.455" x2="317.821" y2="95.841"/>
		</g>
	</g>
	<path class="st7" d="M356.575,95.841v19.084c0,11.575-9.416,20.991-20.991,20.991c-11.575,0-20.991-9.416-20.991-20.991V95.841"/>
	<path class="st7" d="M321.049,95.841v19.084c0,8.014,6.52,14.535,14.535,14.535c8.014,0,14.535-6.52,14.535-14.535V95.841"/>
	<rect x="287.708" y="45.2" class="st7" width="42.733" height="50.64"/>
	<rect x="340.564" y="45.2" class="st7" width="42.733" height="50.64"/>
	<circle class="st5" cx="313.488" cy="59.584" r="3.003"/>
	<circle class="st5" cx="300.572" cy="72.799" r="3.003"/>
	<circle class="st5" cx="315.735" cy="86.039" r="3.003"/>
	<circle class="st5" cx="357.038" cy="59.584" r="3.003"/>
	<circle class="st5" cx="370.554" cy="84.512" r="3.003"/>
	<path class="st7" d="M450.259,144.902c-2.682,0-2.413-3.753,0-3.753c2.228,0,8.004,0,10.418,0c2.413,0,2.68,3.753,0,3.753
		c-2.681,0-0.992,0-2.333,0v32.681c0,1.575-1.278,2.853-2.852,2.853c-1.576,0-2.855-1.278-2.855-2.853l0.028-32.681
		C452.666,144.902,452.939,144.902,450.259,144.902z"/>
	<path class="st7" d="M472.752,144.902c-2.68,0-2.413-3.753,0-3.753c2.228,0,8.005,0,10.419,0c2.412,0,2.68,3.753,0,3.753
		c-2.681,0-0.993,0-2.333,0v32.681c0,1.575-1.277,2.853-2.853,2.853c-1.576,0-2.854-1.278-2.854-2.853l0.027-32.681
		C475.158,144.902,475.432,144.902,472.752,144.902z"/>
	<polyline class="st7" points="448.347,156.383 465.593,156.383 465.593,196.503 	"/>
	<polyline class="st7" points="470.841,156.383 488.086,156.383 488.086,196.503 	"/>
	<path class="st7" d="M495.245,144.902c-2.68,0-2.413-3.753,0-3.753c2.228,0,8.005,0,10.419,0c2.412,0,2.68,3.753,0,3.753
		c-2.681,0-0.993,0-2.333,0v32.681c0,1.575-1.277,2.853-2.853,2.853c-1.576,0-2.854-1.278-2.854-2.853l0.027-32.681
		C497.652,144.902,497.926,144.902,495.245,144.902z"/>
	<polyline class="st7" points="493.335,156.383 510.58,156.383 510.58,196.503 	"/>
	<line class="st7" x1="521.341" y1="196.503" x2="442.147" y2="196.503"/>
	<line class="st7" x1="521.341" y1="201.582" x2="442.147" y2="201.582"/>
	<g>
		<g>
			<line class="st5" x1="477.961" y1="135.471" x2="477.961" y2="133.857"/>
			<path class="st10" d="M477.822,121.511c-0.662-3.35-3.617-5.875-7.161-5.875H446.71"/>
			<path class="st11" d="M440.533,115.636h-40.805c-11.197,0-20.276,9.078-20.276,20.276c0,11.199,9.079,20.278,20.276,20.278
				c11.199,0,20.278-9.079,20.278-56.028V30.65c0-14.551-11.795-26.346-26.346-26.346s-26.346,11.795-26.346,26.346v5.436"/>
			<line class="st5" x1="367.315" y1="42.262" x2="367.315" y2="43.876"/>
		</g>
	</g>
	<path class="st7" d="M377.311,72.261"/>
	<g>
		<g>
			<line class="st5" x1="455.466" y1="137.222" x2="455.466" y2="135.608"/>
			<path class="st12" d="M454.207,123.602c-0.925-1.05-2.28-1.713-3.79-1.713h-29.574"/>
			<path class="st13" d="M414.688,121.889h-14.96c-7.744,0-14.023,6.278-14.023,14.023c0,7.745,6.279,14.024,14.023,14.024
				c7.745,0,14.024-6.279,14.024-14.024v-36.25V57.534c0-0.214,0.019-0.423,0.055-0.626"/>
			<line class="st5" x1="418.518" y1="53.983" x2="420.132" y2="53.983"/>
		</g>
	</g>
	<path class="st7" d="M450.617,118.86c4.564,0,8.277,3.712,8.277,8.276v10.285"/>
	<g>
		<g>
			<line class="st5" x1="500.452" y1="135.675" x2="500.452" y2="134.061"/>
			<path class="st14" d="M500.452,121.776v-1.91c0-5.837-4.734-10.571-10.57-10.571h-15.276"/>
			<path class="st15" d="M468.463,109.296h-68.694c-14.698,0-26.616,11.916-26.616,26.616c0,14.698,11.918,26.615,26.616,26.615
				c14.701,0,26.617-11.917,26.617-26.615V59.718"/>
			<path class="st5" d="M424.396,54.345c-0.472-0.231-1.002-0.361-1.563-0.361"/>
		</g>
	</g>
	<path class="st7" d="M420.007,50.755 M497.224,135.675v-15.809c0-4.049-3.293-7.342-7.342-7.342h-60.268h-19.483h-10.362
		c-12.897,0-23.388,10.492-23.388,23.388c0,12.895,10.491,23.387,23.388,23.387c12.896,0,23.389-10.491,23.389-23.387v-8.016"/>
	<path class="st7" d="M423.235,57.586v45.179"/>
	<path class="st7" d="M470.786,112.533c5.805,0,10.528,4.722,10.528,10.527v12.537"/>
	<path class="st7" d="M452.238,137.222v-10.285c0-1.003-0.816-1.82-1.821-1.82h-20.803h-19.09h-10.796
		c-5.953,0-10.795,4.843-10.795,10.795c0,5.953,4.842,10.796,10.795,10.796c5.953,0,10.796-4.843,10.796-10.796v-8.016"/>
	<line class="st7" x1="416.98" y1="57.534" x2="416.98" y2="102.765"/>
	<path class="st7" d="M410.524,102.765V57.534c0-3.561,2.76-6.489,6.254-6.759V30.65c0-12.747-10.37-23.118-23.118-23.118
		s-23.118,10.37-23.118,23.118v13.226"/>
	<path class="st7" d="M429.614,127.897v8.016c0,16.456-13.388,29.843-29.845,29.843c-16.456,0-29.844-13.387-29.844-29.843
		c0-16.456,13.388-29.845,29.844-29.845h10.755"/>
	<path class="st7" d="M416.98,127.897v8.016c0,9.513-7.739,17.253-17.252,17.253c-9.512,0-17.251-7.74-17.251-17.253
		c0-9.512,7.739-17.251,17.251-17.251h10.796l12.711,0.203h47.426c2.246,0,4.072,1.826,4.072,4.071v12.537"/>
	<path class="st7" d="M429.614,106.068h60.268c7.608,0,13.798,6.19,13.798,13.799v15.809"/>
	<path class="st7" d="M364.087,43.876V30.65c0-16.307,13.266-29.574,29.574-29.574s29.574,13.267,29.574,29.574v1.842v18.276
		l0.006,0.001c3.55,0.211,6.373,3.165,6.373,6.766v45.231"/>
	<line class="st7" x1="410.524" y1="106.068" x2="429.614" y2="106.068"/>
	<g>
		<g>
			<line class="st5" x1="455.468" y1="168.8" x2="455.468" y2="170.414"/>
			<line class="st16" x1="455.468" y1="171.891" x2="455.468" y2="175.952"/>
			<line class="st5" x1="455.468" y1="176.691" x2="455.468" y2="178.305"/>
		</g>
	</g>
	<g>
		<g>
			<line class="st5" x1="477.961" y1="168.8" x2="477.961" y2="170.414"/>
			<line class="st16" x1="477.961" y1="171.891" x2="477.961" y2="175.952"/>
			<line class="st5" x1="477.961" y1="176.691" x2="477.961" y2="178.305"/>
		</g>
	</g>
	<line class="st5" x1="500.453" y1="168.8" x2="500.453" y2="178.305"/>
	<line class="st5" x1="27.787" y1="154.458" x2="22.819" y2="163.887"/>
	<line class="st5" x1="33.704" y1="152.117" x2="27.504" y2="163.887"/>
	<line class="st5" x1="37.298" y1="154.187" x2="32.188" y2="163.887"/>
	<line class="st5" x1="43.073" y1="152.117" x2="36.872" y2="163.887"/>
	<line class="st5" x1="46.534" y1="154.437" x2="41.556" y2="163.887"/>
	<line class="st5" x1="49.206" y1="158.259" x2="46.241" y2="163.887"/>
	<line class="st5" x1="52.13" y1="161.598" x2="50.925" y2="163.887"/>
</g>
</svg>
